<svg width="74" height="68" viewBox="0 0 74 68" fill="none"
    xmlns="http://www.w3.org/2000/svg">
    <path d="M44 51.5H30M72 37.5C63.4005 33.2055 50.9055 30.5 37 30.5C23.0945 30.5 10.5995 33.2055 2 37.5M19.5 44.5C16.7152 44.5 14.0445 45.6062 12.0754 47.5754C10.1062 49.5445 9 52.2152 9 55C9 57.7848 10.1062 60.4555 12.0754 62.4246C14.0445 64.3938 16.7152 65.5 19.5 65.5C22.2848 65.5 24.9555 64.3938 26.9246 62.4246C28.8938 60.4555 30 57.7848 30 55C30 52.2152 28.8938 49.5445 26.9246 47.5754C24.9555 45.6062 22.2848 44.5 19.5 44.5ZM54.5 44.5C51.7152 44.5 49.0445 45.6062 47.0754 47.5754C45.1062 49.5445 44 52.2152 44 55C44 57.7848 45.1062 60.4555 47.0754 62.4246C49.0445 64.3938 51.7152 65.5 54.5 65.5C57.2848 65.5 59.9555 64.3938 61.9246 62.4246C63.8938 60.4555 65 57.7848 65 55C65 52.2152 63.8938 49.5445 61.9246 47.5754C59.9555 45.6062 57.2848 44.5 54.5 44.5Z" stroke="#007C16" stroke-width="4" stroke-linecap="round" stroke-linejoin="round"/>
    <path d="M61.5 32.2496L57.797 8.49161C57.0445 3.64761 51.7805 1.02261 47.5315 3.37111L45.379 4.56111C42.8148 5.98174 39.9315 6.72707 37 6.72707C34.0685 6.72707 31.1852 5.98174 28.621 4.56111L26.4685 3.37111C22.2195 1.02611 16.9555 3.65111 16.203 8.49161L12.5 32.2496" stroke="#007C16" stroke-width="4" stroke-linecap="round" stroke-linejoin="round"/>
</svg>
