<svg width="1080" height="685" viewBox="0 0 1080 685" fill="none" xmlns="http://www.w3.org/2000/svg">
<ellipse cx="524.5" cy="163" rx="636.5" ry="522" fill="#007C16"/>
<g opacity="0.8" clip-path="url(#clip0_8_285)">
<path d="M877.756 260.676L807.545 304.956C806.922 305.37 805.883 305.163 805.468 304.542C805.052 303.922 805.26 302.887 805.883 302.473L877.756 260.676Z" fill="url(#paint0_linear_8_285)"/>
<path d="M206.186 377.17L135.975 421.45C135.352 421.864 134.313 421.657 133.898 421.036C133.483 420.415 133.69 419.381 134.313 418.967L206.186 377.17Z" fill="url(#paint1_linear_8_285)"/>
<path d="M619.348 116.042C619.14 118.318 621.01 120.387 623.295 120.594C625.58 120.801 627.657 118.939 627.864 116.663C628.072 114.387 626.203 112.317 623.918 112.11C621.633 111.904 619.556 113.559 619.348 116.042Z" fill="white"/>
<path d="M936.126 9.89397C935.918 11.9631 937.58 13.8254 939.657 13.8254C941.734 14.0323 943.604 12.377 943.604 10.3078C943.812 8.23863 942.15 6.37639 940.072 6.37639C937.995 6.16947 936.126 7.82481 936.126 9.89397Z" fill="#97FFFF"/>
<path d="M318.772 604.985C318.564 607.054 320.226 608.916 322.303 608.916C324.38 609.123 326.25 607.468 326.25 605.399C326.458 603.329 324.796 601.467 322.719 601.467C320.641 601.26 318.98 602.916 318.772 604.985Z" fill="#97FFFF"/>
<path d="M367.795 331.235C367.587 333.304 369.249 335.166 371.326 335.166C373.403 335.373 375.273 333.718 375.273 331.648C375.48 329.579 373.819 327.717 371.741 327.717C369.664 327.717 367.795 329.165 367.795 331.235Z" fill="#97FFFF"/>
<path d="M789.265 636.643C789.058 638.712 790.719 640.574 792.797 640.574C794.874 640.781 796.743 639.126 796.743 637.057C796.951 634.988 795.289 633.125 793.212 633.125C791.135 632.918 789.265 634.574 789.265 636.643Z" fill="#97FFFF"/>
<path d="M103.155 126.388C102.947 128.457 104.609 130.319 106.686 130.319C108.764 130.319 110.633 128.871 110.633 126.802C110.841 124.732 109.179 122.87 107.102 122.87C105.025 122.87 103.363 124.319 103.155 126.388Z" fill="#97FFFF"/>
<path d="M717.601 403.449C719.895 403.449 721.755 401.596 721.755 399.31C721.755 397.025 719.895 395.172 717.601 395.172C715.306 395.172 713.446 397.025 713.446 399.31C713.446 401.596 715.306 403.449 717.601 403.449Z" fill="white"/>
<path d="M160.279 621.745C160.279 624.021 162.149 625.883 164.434 625.883C166.718 625.883 168.588 624.021 168.588 621.745C168.588 619.469 166.718 617.607 164.434 617.607C162.356 617.4 160.279 619.469 160.279 621.745Z" fill="white"/>
<path d="M734.842 -33.7654L664.631 10.5147C664.008 10.9285 662.97 10.7216 662.554 10.1008C662.139 9.48009 662.346 8.44551 662.97 8.03168L734.842 -33.7654Z" fill="url(#paint2_linear_8_285)"/>
<path d="M490.352 587.397L420.141 631.677C419.518 632.091 418.479 631.884 418.064 631.263C417.648 630.642 417.856 629.608 418.479 629.194L490.352 587.397Z" fill="url(#paint3_linear_8_285)"/>
<path d="M510.085 548.703L439.875 592.983C439.252 593.397 438.213 593.19 437.797 592.57C437.382 591.949 437.59 590.914 438.213 590.5L510.085 548.703Z" fill="url(#paint4_linear_8_285)"/>
<path d="M840.158 580.155C839.742 590.087 847.636 598.57 857.606 598.984C867.577 599.398 876.094 591.535 876.509 581.603C876.925 571.671 869.031 563.188 859.06 562.774C849.09 562.567 840.573 570.223 840.158 580.155Z" fill="url(#paint5_radial_8_285)"/>
<path d="M243.161 124.112C253.141 124.112 261.232 116.052 261.232 106.11C261.232 96.1678 253.141 88.1082 243.161 88.1082C233.18 88.1082 225.089 96.1678 225.089 106.11C225.089 116.052 233.18 124.112 243.161 124.112Z" fill="url(#paint6_radial_8_285)"/>
<path d="M280.551 621.745C275.773 622.573 272.45 627.125 273.281 631.884C274.111 636.643 278.681 639.953 283.459 639.126C288.237 638.298 291.56 633.746 290.729 628.987C289.898 624.228 285.329 621.124 280.551 621.745Z" fill="url(#paint7_radial_8_285)"/>
<path d="M655.699 188.049C653.83 191.98 655.699 196.532 659.646 198.188C663.593 200.05 668.163 198.188 669.824 194.256C671.694 190.325 669.824 185.773 665.878 184.117C661.931 182.255 657.361 184.117 655.699 188.049Z" fill="url(#paint8_radial_8_285)"/>
<path d="M327.704 433.037C325.835 436.969 327.704 441.521 331.651 443.176C335.598 445.039 340.167 443.176 341.829 439.245C343.699 435.313 341.829 430.761 337.883 429.106C334.144 427.451 329.366 429.106 327.704 433.037Z" fill="url(#paint9_radial_8_285)"/>
<path d="M378.596 480.214C388.577 480.214 396.668 472.155 396.668 462.213C396.668 452.271 388.577 444.211 378.596 444.211C368.616 444.211 360.524 452.271 360.524 462.213C360.524 472.155 368.616 480.214 378.596 480.214Z" fill="url(#paint10_radial_8_285)"/>
<path d="M191.853 184.117L187.283 190.118L193.515 193.222L191.437 197.153L184.375 193.635L177.52 202.326L173.365 200.257L180.22 191.566L174.404 188.669L167.549 197.36L163.395 195.291L170.042 186.393L164.226 183.496L166.303 179.565L172.95 182.876L177.52 176.875L171.288 173.771L173.365 169.84L180.22 173.358L187.075 164.46L191.23 166.529L184.375 175.427L190.191 178.324L197.046 169.426L201.2 171.495L194.346 180.393L200.162 183.29L198.085 187.221L191.853 184.117ZM177.312 184.945L183.129 187.842L187.698 181.841L181.882 178.944L177.312 184.945Z" fill="white"/>
<path d="M710.375 602.241C709.544 604.103 708.505 605.551 707.259 606.793C706.013 608.034 704.766 608.862 703.312 609.069C701.858 609.483 700.612 609.276 699.158 608.655C698.119 608.241 697.496 607.621 696.873 606.586C696.457 605.758 696.25 604.724 696.457 603.689L696.25 603.482C695.211 604.103 694.172 604.517 692.926 604.724C691.887 604.724 690.641 604.517 689.603 604.103C687.525 603.069 686.279 601.827 685.656 599.965C685.033 598.103 685.24 596.033 686.279 593.757C687.525 591.274 689.187 589.412 691.472 588.584C693.757 587.757 696.25 587.757 698.95 588.998C699.989 589.412 701.027 590.033 702.066 590.654C703.105 591.274 704.143 592.102 704.766 592.723L700.196 601.206L699.989 601.62C699.158 603.689 699.158 604.931 700.612 605.551C701.651 605.965 702.689 605.758 703.935 604.724C705.182 603.689 706.22 602.241 707.051 600.172C708.09 598.102 708.505 596.033 708.298 593.964C708.09 591.895 707.467 590.033 706.22 588.584C704.974 586.929 703.312 585.688 701.235 584.653C698.535 583.411 696.042 582.998 693.549 582.998C691.057 583.205 688.772 584.032 686.902 585.688C684.825 587.343 683.371 589.412 682.124 592.102C680.463 595.826 680.047 598.93 681.086 601.827C682.124 604.724 684.409 607 688.148 608.655C690.849 609.897 694.172 610.724 697.704 610.931L696.25 614.035C693.134 613.828 690.018 613.207 686.902 611.759C682.332 609.69 679.216 606.793 677.762 603.069C676.308 599.344 676.724 595.206 678.801 590.86C680.255 587.55 682.332 585.067 685.033 583.205C687.525 581.342 690.433 580.308 693.549 580.101C696.665 579.894 699.781 580.515 702.897 581.963C705.597 583.205 707.882 584.86 709.336 586.929C710.998 588.998 711.829 591.481 712.037 593.964C712.037 596.654 711.621 599.344 710.375 602.241ZM689.81 595.62C688.356 598.516 688.979 600.585 691.264 601.62C693.757 602.655 695.834 601.413 697.704 597.896L699.989 593.55C699.366 592.93 698.535 592.516 697.496 592.102C695.834 591.274 694.38 591.274 692.926 591.895C691.887 592.516 690.641 593.757 689.81 595.62Z" fill="white"/>
</g>
<path d="M394.932 361.82H420.692V377H375.267V296.27H394.932V361.82ZM459.656 377.92C453.369 377.92 447.696 376.578 442.636 373.895C437.653 371.212 433.704 367.378 430.791 362.395C427.954 357.412 426.536 351.585 426.536 344.915C426.536 338.322 427.993 332.533 430.906 327.55C433.819 322.49 437.806 318.618 442.866 315.935C447.926 313.252 453.599 311.91 459.886 311.91C466.173 311.91 471.846 313.252 476.906 315.935C481.966 318.618 485.953 322.49 488.866 327.55C491.779 332.533 493.236 338.322 493.236 344.915C493.236 351.508 491.741 357.335 488.751 362.395C485.838 367.378 481.813 371.212 476.676 373.895C471.616 376.578 465.943 377.92 459.656 377.92ZM459.656 360.9C463.413 360.9 466.594 359.52 469.201 356.76C471.884 354 473.226 350.052 473.226 344.915C473.226 339.778 471.923 335.83 469.316 333.07C466.786 330.31 463.643 328.93 459.886 328.93C456.053 328.93 452.871 330.31 450.341 333.07C447.811 335.753 446.546 339.702 446.546 344.915C446.546 350.052 447.773 354 450.226 356.76C452.756 359.52 455.899 360.9 459.656 360.9ZM528.423 311.91C532.946 311.91 536.894 312.83 540.268 314.67C543.718 316.51 546.363 318.925 548.203 321.915V312.83H567.868V376.885C567.868 382.788 566.679 388.117 564.303 392.87C562.003 397.7 558.438 401.533 553.608 404.37C548.854 407.207 542.913 408.625 535.783 408.625C526.276 408.625 518.571 406.363 512.668 401.84C506.764 397.393 503.391 391.337 502.548 383.67H521.983C522.596 386.123 524.053 388.04 526.353 389.42C528.653 390.877 531.489 391.605 534.863 391.605C538.926 391.605 542.146 390.417 544.523 388.04C546.976 385.74 548.203 382.022 548.203 376.885V367.8C546.286 370.79 543.641 373.243 540.268 375.16C536.894 377 532.946 377.92 528.423 377.92C523.133 377.92 518.341 376.578 514.048 373.895C509.754 371.135 506.343 367.263 503.813 362.28C501.359 357.22 500.133 351.393 500.133 344.8C500.133 338.207 501.359 332.418 503.813 327.435C506.343 322.452 509.754 318.618 514.048 315.935C518.341 313.252 523.133 311.91 528.423 311.91ZM548.203 344.915C548.203 340.008 546.823 336.137 544.063 333.3C541.379 330.463 538.083 329.045 534.173 329.045C530.263 329.045 526.928 330.463 524.168 333.3C521.484 336.06 520.143 339.893 520.143 344.8C520.143 349.707 521.484 353.617 524.168 356.53C526.928 359.367 530.263 360.785 534.173 360.785C538.083 360.785 541.379 359.367 544.063 356.53C546.823 353.693 548.203 349.822 548.203 344.915ZM617.102 306.16C613.652 306.16 610.816 305.163 608.592 303.17C606.446 301.1 605.372 298.57 605.372 295.58C605.372 292.513 606.446 289.983 608.592 287.99C610.816 285.92 613.652 284.885 617.102 284.885C620.476 284.885 623.236 285.92 625.382 287.99C627.606 289.983 628.717 292.513 628.717 295.58C628.717 298.57 627.606 301.1 625.382 303.17C623.236 305.163 620.476 306.16 617.102 306.16ZM626.877 312.83V377H607.212V312.83H626.877ZM680.602 312.14C688.116 312.14 694.096 314.593 698.543 319.5C703.066 324.33 705.328 331 705.328 339.51V377H685.778V342.155C685.778 337.862 684.666 334.527 682.442 332.15C680.219 329.773 677.229 328.585 673.472 328.585C669.716 328.585 666.726 329.773 664.503 332.15C662.279 334.527 661.167 337.862 661.167 342.155V377H641.502V312.83H661.167V321.34C663.161 318.503 665.844 316.28 669.217 314.67C672.591 312.983 676.386 312.14 680.602 312.14Z" fill="white"/>
<defs>
<linearGradient id="paint0_linear_8_285" x1="860.546" y1="248.969" x2="822.755" y2="314.681" gradientUnits="userSpaceOnUse">
<stop offset="0.2043" stop-color="white" stop-opacity="0"/>
<stop offset="1" stop-color="white"/>
</linearGradient>
<linearGradient id="paint1_linear_8_285" x1="188.958" y1="365.542" x2="151.166" y2="431.255" gradientUnits="userSpaceOnUse">
<stop offset="0.2043" stop-color="white" stop-opacity="0"/>
<stop offset="1" stop-color="white"/>
</linearGradient>
<linearGradient id="paint2_linear_8_285" x1="717.71" y1="-45.4652" x2="679.918" y2="20.2476" gradientUnits="userSpaceOnUse">
<stop offset="0.2043" stop-color="white" stop-opacity="0"/>
<stop offset="1" stop-color="white"/>
</linearGradient>
<linearGradient id="paint3_linear_8_285" x1="473.142" y1="575.777" x2="435.35" y2="641.49" gradientUnits="userSpaceOnUse">
<stop offset="0.2043" stop-color="white" stop-opacity="0"/>
<stop offset="1" stop-color="white"/>
</linearGradient>
<linearGradient id="paint4_linear_8_285" x1="492.96" y1="537.043" x2="455.168" y2="602.756" gradientUnits="userSpaceOnUse">
<stop offset="0.2043" stop-color="white" stop-opacity="0"/>
<stop offset="1" stop-color="white"/>
</linearGradient>
<radialGradient id="paint5_radial_8_285" cx="0" cy="0" r="1" gradientUnits="userSpaceOnUse" gradientTransform="translate(855.519 579.007) rotate(-177.705) scale(22.1866 22.1006)">
<stop offset="0.1237" stop-color="#FFFF70"/>
<stop offset="0.223" stop-color="#FFEF66"/>
<stop offset="0.5783" stop-color="#FFBC44"/>
<stop offset="0.8464" stop-color="#FF9C2F"/>
<stop offset="0.9946" stop-color="#FF9027"/>
</radialGradient>
<radialGradient id="paint6_radial_8_285" cx="0" cy="0" r="1" gradientUnits="userSpaceOnUse" gradientTransform="translate(244.592 102.935) rotate(-99.353) scale(22.1026 22.1843)">
<stop offset="0.1237" stop-color="#00FFFE"/>
<stop offset="0.2556" stop-color="#00E5FE"/>
<stop offset="0.5463" stop-color="#00B2FF"/>
<stop offset="0.7658" stop-color="#0092FF"/>
<stop offset="0.8871" stop-color="#0086FF"/>
</radialGradient>
<radialGradient id="paint7_radial_8_285" cx="0" cy="0" r="1" gradientUnits="userSpaceOnUse" gradientTransform="translate(282.668 628.947) rotate(-99.353) scale(10.7286 10.7682)">
<stop offset="0.1237" stop-color="#00FFFE"/>
<stop offset="0.2556" stop-color="#00E5FE"/>
<stop offset="0.5463" stop-color="#00B2FF"/>
<stop offset="0.7658" stop-color="#0092FF"/>
<stop offset="0.8871" stop-color="#0086FF"/>
</radialGradient>
<radialGradient id="paint8_radial_8_285" cx="0" cy="0" r="1" gradientUnits="userSpaceOnUse" gradientTransform="translate(661.865 189.932) rotate(-155.71) scale(9.47949 9.45515)">
<stop offset="0.1237" stop-color="#FFFF70"/>
<stop offset="0.223" stop-color="#FFEF66"/>
<stop offset="0.5783" stop-color="#FFBC44"/>
<stop offset="0.8464" stop-color="#FF9C2F"/>
<stop offset="0.9946" stop-color="#FF9027"/>
</radialGradient>
<radialGradient id="paint9_radial_8_285" cx="0" cy="0" r="1" gradientUnits="userSpaceOnUse" gradientTransform="translate(333.955 434.963) rotate(-155.71) scale(9.4795 9.45517)">
<stop offset="0.1237" stop-color="#FFFF70"/>
<stop offset="0.223" stop-color="#FFEF66"/>
<stop offset="0.5783" stop-color="#FFBC44"/>
<stop offset="0.8464" stop-color="#FF9C2F"/>
<stop offset="0.9946" stop-color="#FF9027"/>
</radialGradient>
<radialGradient id="paint10_radial_8_285" cx="0" cy="0" r="1" gradientUnits="userSpaceOnUse" gradientTransform="translate(379.967 459.07) rotate(-99.353) scale(22.1026 22.1843)">
<stop offset="0.1237" stop-color="#FFFF70"/>
<stop offset="0.223" stop-color="#FFEF66"/>
<stop offset="0.5783" stop-color="#FFBC44"/>
<stop offset="0.8464" stop-color="#FF9C2F"/>
<stop offset="0.9946" stop-color="#FF9027"/>
</radialGradient>
<clipPath id="clip0_8_285">
<rect width="840.449" height="784.419" fill="white" transform="translate(103.155 -143.845)"/>
</clipPath>
</defs>
</svg>
