<svg width="210" height="134" viewBox="0 0 210 134" fill="none"
    xmlns="http://www.w3.org/2000/svg">
    <rect x="2" y="2" width="206" height="130" rx="16" stroke="#007C16" stroke-width="4"/>
    <rect y="27" width="210" height="18" fill="black"/>
    <rect x="19" y="77" width="66" height="6" rx="3" fill="black"/>
    <rect x="19" y="93" width="44" height="6" rx="3" fill="black"/>
    <path d="M115.043 89.6836L118.406 90.75C117.891 92.625 117.031 94.0195 115.828 94.9336C114.633 95.8398 113.113 96.293 111.27 96.293C108.988 96.293 107.113 95.5156 105.645 93.9609C104.176 92.3984 103.441 90.2656 103.441 87.5625C103.441 84.7031 104.18 82.4844 105.656 80.9062C107.133 79.3203 109.074 78.5273 111.48 78.5273C113.582 78.5273 115.289 79.1484 116.602 80.3906C117.383 81.125 117.969 82.1797 118.359 83.5547L114.926 84.375C114.723 83.4844 114.297 82.7812 113.648 82.2656C113.008 81.75 112.227 81.4922 111.305 81.4922C110.031 81.4922 108.996 81.9492 108.199 82.8633C107.41 83.7773 107.016 85.2578 107.016 87.3047C107.016 89.4766 107.406 91.0234 108.188 91.9453C108.969 92.8672 109.984 93.3281 111.234 93.3281C112.156 93.3281 112.949 93.0352 113.613 92.4492C114.277 91.8633 114.754 90.9414 115.043 89.6836ZM121.406 96V78.8203H128.707C130.543 78.8203 131.875 78.9766 132.703 79.2891C133.539 79.5938 134.207 80.1406 134.707 80.9297C135.207 81.7188 135.457 82.6211 135.457 83.6367C135.457 84.9258 135.078 85.9922 134.32 86.8359C133.562 87.6719 132.43 88.1992 130.922 88.418C131.672 88.8555 132.289 89.3359 132.773 89.8594C133.266 90.3828 133.926 91.3125 134.754 92.6484L136.852 96H132.703L130.195 92.2617C129.305 90.9258 128.695 90.0859 128.367 89.7422C128.039 89.3906 127.691 89.1523 127.324 89.0273C126.957 88.8945 126.375 88.8281 125.578 88.8281H124.875V96H121.406ZM124.875 86.0859H127.441C129.105 86.0859 130.145 86.0156 130.559 85.875C130.973 85.7344 131.297 85.4922 131.531 85.1484C131.766 84.8047 131.883 84.375 131.883 83.8594C131.883 83.2812 131.727 82.8164 131.414 82.4648C131.109 82.1055 130.676 81.8789 130.113 81.7852C129.832 81.7461 128.988 81.7266 127.582 81.7266H124.875V86.0859ZM138.738 96V78.8203H151.477V81.7266H142.207V85.5352H150.832V88.4297H142.207V93.1055H151.805V96H138.738ZM154.734 78.8203H161.074C162.504 78.8203 163.594 78.9297 164.344 79.1484C165.352 79.4453 166.215 79.9727 166.934 80.7305C167.652 81.4883 168.199 82.418 168.574 83.5195C168.949 84.6133 169.137 85.9648 169.137 87.5742C169.137 88.9883 168.961 90.207 168.609 91.2305C168.18 92.4805 167.566 93.4922 166.77 94.2656C166.168 94.8516 165.355 95.3086 164.332 95.6367C163.566 95.8789 162.543 96 161.262 96H154.734V78.8203ZM158.203 81.7266V93.1055H160.793C161.762 93.1055 162.461 93.0508 162.891 92.9414C163.453 92.8008 163.918 92.5625 164.285 92.2266C164.66 91.8906 164.965 91.3398 165.199 90.5742C165.434 89.8008 165.551 88.75 165.551 87.4219C165.551 86.0938 165.434 85.0742 165.199 84.3633C164.965 83.6523 164.637 83.0977 164.215 82.6992C163.793 82.3008 163.258 82.0312 162.609 81.8906C162.125 81.7812 161.176 81.7266 159.762 81.7266H158.203ZM171.984 96V78.8203H175.453V96H171.984ZM182.637 96V81.7266H177.539V78.8203H191.191V81.7266H186.105V96H182.637Z" fill="#007C16"/>
</svg>
