<svg width="225" height="166" viewBox="0 0 225 166" fill="none"
    xmlns="http://www.w3.org/2000/svg">
    <rect x="3.29655" y="34.5836" width="200.062" height="130" rx="16" transform="rotate(-9.28729 3.29655 34.5836)" fill="white" stroke="black" stroke-width="4"/>
    <rect x="2" y="33" width="206" height="130" rx="16" fill="white" stroke="#007C16" stroke-width="4"/>
    <rect y="58" width="210" height="18" fill="black"/>
    <rect x="19" y="108" width="66" height="6" rx="3" fill="black"/>
    <rect x="19" y="124" width="44" height="6" rx="3" fill="black"/>
    <path d="M113.211 109.82H119.551C120.98 109.82 122.07 109.93 122.82 110.148C123.828 110.445 124.691 110.973 125.41 111.73C126.129 112.488 126.676 113.418 127.051 114.52C127.426 115.613 127.613 116.965 127.613 118.574C127.613 119.988 127.438 121.207 127.086 122.23C126.656 123.48 126.043 124.492 125.246 125.266C124.645 125.852 123.832 126.309 122.809 126.637C122.043 126.879 121.02 127 119.738 127H113.211V109.82ZM116.68 112.727V124.105H119.27C120.238 124.105 120.938 124.051 121.367 123.941C121.93 123.801 122.395 123.562 122.762 123.227C123.137 122.891 123.441 122.34 123.676 121.574C123.91 120.801 124.027 119.75 124.027 118.422C124.027 117.094 123.91 116.074 123.676 115.363C123.441 114.652 123.113 114.098 122.691 113.699C122.27 113.301 121.734 113.031 121.086 112.891C120.602 112.781 119.652 112.727 118.238 112.727H116.68ZM130.566 127V109.82H143.305V112.727H134.035V116.535H142.66V119.43H134.035V124.105H143.633V127H130.566ZM146.586 109.82H153.453C154.812 109.82 155.824 109.879 156.488 109.996C157.16 110.105 157.758 110.34 158.281 110.699C158.812 111.059 159.254 111.539 159.605 112.141C159.957 112.734 160.133 113.402 160.133 114.145C160.133 114.949 159.914 115.688 159.477 116.359C159.047 117.031 158.461 117.535 157.719 117.871C158.766 118.176 159.57 118.695 160.133 119.43C160.695 120.164 160.977 121.027 160.977 122.02C160.977 122.801 160.793 123.562 160.426 124.305C160.066 125.039 159.57 125.629 158.938 126.074C158.312 126.512 157.539 126.781 156.617 126.883C156.039 126.945 154.645 126.984 152.434 127H146.586V109.82ZM150.055 112.68V116.652H152.328C153.68 116.652 154.52 116.633 154.848 116.594C155.441 116.523 155.906 116.32 156.242 115.984C156.586 115.641 156.758 115.191 156.758 114.637C156.758 114.105 156.609 113.676 156.312 113.348C156.023 113.012 155.59 112.809 155.012 112.738C154.668 112.699 153.68 112.68 152.047 112.68H150.055ZM150.055 119.512V124.105H153.266C154.516 124.105 155.309 124.07 155.645 124C156.16 123.906 156.578 123.68 156.898 123.32C157.227 122.953 157.391 122.465 157.391 121.855C157.391 121.34 157.266 120.902 157.016 120.543C156.766 120.184 156.402 119.922 155.926 119.758C155.457 119.594 154.434 119.512 152.855 119.512H150.055ZM163.812 127V109.82H167.281V127H163.812ZM174.465 127V112.727H169.367V109.82H183.02V112.727H177.934V127H174.465Z" fill="#007C16"/>
</svg>
