<svg width="117" height="117" viewBox="0 0 117 117" fill="none"
    xmlns="http://www.w3.org/2000/svg">
    <path d="M78 9.75C64.545 9.75 53.625 20.67 53.625 34.125C53.625 47.58 64.545 58.5 78 58.5C91.455 58.5 102.375 47.58 102.375 34.125C102.375 20.67 91.455 9.75 78 9.75ZM78 48.75C69.9075 48.75 63.375 42.2175 63.375 34.125C63.375 26.0325 69.9075 19.5 78 19.5C86.0925 19.5 92.625 26.0325 92.625 34.125C92.625 42.2175 86.0925 48.75 78 48.75ZM92.625 78H82.875C82.875 72.15 79.2188 66.885 73.7588 64.8375L43.7288 53.625H4.875V107.25H34.125V100.23L68.25 109.688L107.25 97.5V92.625C107.25 84.5325 100.717 78 92.625 78ZM24.375 97.5H14.625V63.375H24.375V97.5ZM68.1038 99.4987L34.125 90.1875V63.375H41.9737L70.3463 73.9538C72.0038 74.5875 73.125 76.1963 73.125 78C73.125 78 63.375 77.7562 61.9125 77.2688L50.31 73.4175L47.2387 82.68L58.8412 86.5312C61.3275 87.36 63.9112 87.75 66.5437 87.75H92.625C94.5263 87.75 96.2325 88.92 97.0125 90.5287L68.1038 99.4987Z" fill="white"/>
</svg>
