<svg width="59" height="44" viewBox="0 0 59 44" fill="none"
    xmlns="http://www.w3.org/2000/svg">
    <path fill-rule="evenodd" clip-rule="evenodd" d="M54.8167 6.17466L31.669 25.344C31.0112 25.889 30.1838 26.1872 29.3297 26.1872C28.4755 26.1872 27.6481 25.889 26.9903 25.344L3.85367 6.17466C3.72952 6.54834 3.66638 6.93957 3.66667 7.33333V36.6667C3.66667 37.6391 4.05297 38.5717 4.74061 39.2594C5.42824 39.947 6.36087 40.3333 7.33333 40.3333H51.3333C52.3058 40.3333 53.2384 39.947 53.926 39.2594C54.6137 38.5717 55 37.6391 55 36.6667V7.33333C55.0014 6.93977 54.9395 6.54854 54.8167 6.17466ZM7.33333 0H51.3333C53.2782 0 55.1435 0.772616 56.5188 2.14788C57.894 3.52315 58.6666 5.38841 58.6666 7.33333V36.6667C58.6666 38.6116 57.894 40.4768 56.5188 41.8521C55.1435 43.2274 53.2782 44 51.3333 44H7.33333C5.38841 44 3.52315 43.2274 2.14788 41.8521C0.772617 40.4768 0 38.6116 0 36.6667V7.33333C0 5.38841 0.772617 3.52315 2.14788 2.14788C3.52315 0.772616 5.38841 0 7.33333 0ZM6.56333 3.66667L27.0087 20.5443C27.6635 21.0852 28.4857 21.3819 29.335 21.384C30.1843 21.386 31.008 21.0931 31.6653 20.5553L52.316 3.66667H6.56333Z" fill="#007C16"/>
</svg>
