<svg width="16" height="19" viewBox="0 0 16 19" fill="none"
    xmlns="http://www.w3.org/2000/svg">
    <path d="M7.89384 3.15989L3.94862 7.10511C3.16842 7.88539 2.63712 8.87949 2.4219 9.96171C2.20667 11.0439 2.31719 12.1657 2.73947 13.1851C3.16176 14.2045 3.87685 15.0758 4.79432 15.6888C5.71178 16.3018 6.79042 16.629 7.89384 16.629C8.99726 16.629 10.0759 16.3018 10.9934 15.6888C11.9108 15.0758 12.6259 14.2045 13.0482 13.1851C13.4705 12.1657 13.581 11.0439 13.3658 9.96171C13.1506 8.87949 12.6193 7.88539 11.8391 7.10511L7.89384 3.15989ZM7.89384 0.90593L12.966 5.97813C13.9692 6.98132 14.6524 8.25945 14.9292 9.6509C15.2059 11.0423 15.0639 12.4846 14.5209 13.7953C13.978 15.106 13.0586 16.2263 11.879 17.0145C10.6994 17.8027 9.31255 18.2234 7.89384 18.2234C6.47513 18.2234 5.08828 17.8027 3.90867 17.0145C2.72906 16.2263 1.80966 15.106 1.26674 13.7953C0.723817 12.4846 0.58176 11.0423 0.85853 9.6509C1.1353 8.25945 1.81847 6.98132 2.82164 5.97813L7.89384 0.90593Z" fill="white"/>
</svg>
