<svg width="135" height="135" viewBox="0 0 135 135" fill="none"
    xmlns="http://www.w3.org/2000/svg">
    <g clip-path="url(#clip0_292_317)">
        <path d="M135 39.375C135 33.1875 123.75 22.5 123.75 22.5C123.75 22.5 112.5 33.1875 112.5 39.375C112.5 43.5375 114.75 47.1375 118.125 49.05V73.125H106.875V61.875C106.875 56.5313 103.163 52.0875 98.1563 50.9625C100.069 47.7 101.25 43.9313 101.25 39.8813C101.25 32.5125 97.5938 25.65 91.4625 21.6L67.5 5.625L43.5375 21.6C40.5216 23.6002 38.0488 26.3171 36.3407 29.5076C34.6326 32.698 33.7424 36.2623 33.75 39.8813C33.75 43.9313 34.9313 47.7 36.8438 50.9063C31.8375 52.0875 28.125 56.5313 28.125 61.875V73.125H16.875V49.05C20.25 47.1375 22.5 43.5375 22.5 39.375C22.5 33.1875 11.25 22.5 11.25 22.5C11.25 22.5 0 33.1875 0 39.375C0 43.5375 2.25 47.1375 5.625 49.05V118.125H61.875V95.625C61.875 92.5313 64.4062 90 67.5 90C70.5938 90 73.125 92.5313 73.125 95.625V118.125H129.375V49.05C132.75 47.1375 135 43.5375 135 39.375ZM49.7813 30.9375L67.5 19.125L85.2188 30.9375C88.2 32.9625 90 36.2813 90 39.8813C90 45.7875 85.1625 50.625 79.2562 50.625H55.7437C49.8375 50.625 45 45.7875 45 39.8813C45 36.2813 46.8 32.9625 49.7813 30.9375ZM118.125 106.875H84.375V95.625C84.375 86.3438 76.7812 78.75 67.5 78.75C58.2188 78.75 50.625 86.3438 50.625 95.625V106.875H16.875V84.375H39.375V61.875H95.625V84.375H118.125V106.875Z" fill="white"/>
    </g>
    <defs>
        <clipPath id="clip0_292_317">
            <rect width="135" height="135" fill="white"/>
        </clipPath>
    </defs>
</svg>
