<svg width="13" height="16" viewBox="0 0 13 16" fill="none"
    xmlns="http://www.w3.org/2000/svg">
    <path d="M1.80708 11.8381H11.5958V6.96546C11.5958 4.25049 9.40451 2.04943 6.70143 2.04943C3.99835 2.04943 1.80708 4.25049 1.80708 6.96546V11.8381ZM6.70143 0.651047C10.1764 0.651047 12.9942 3.47788 12.9942 6.96546V13.2365H0.408691V6.96546C0.408691 3.47788 3.22644 0.651047 6.70143 0.651047ZM4.95345 13.9357H8.44941C8.44941 14.3993 8.26525 14.8439 7.93744 15.1717C7.60963 15.4995 7.16502 15.6837 6.70143 15.6837C6.23784 15.6837 5.79323 15.4995 5.46542 15.1717C5.13761 14.8439 4.95345 14.3993 4.95345 13.9357Z" fill="white"/>
</svg>
