<svg width="48" height="48" viewBox="0 0 48 48" fill="none"
    xmlns="http://www.w3.org/2000/svg">
    <path d="M37.9999 22.0004H9.99977C7.79062 22.0004 5.99975 23.7913 5.99975 26.0004V40.0005C5.99975 42.2096 7.79062 44.0005 9.99977 44.0005H37.9999C40.209 44.0005 41.9999 42.2096 41.9999 40.0005V26.0004C41.9999 23.7913 40.209 22.0004 37.9999 22.0004Z" stroke="#008000" stroke-width="4" stroke-linecap="round" stroke-linejoin="round"/>
    <path d="M14.0001 22.0002V14.0002C14.0001 11.348 15.0537 8.80448 16.929 6.92911C18.8044 5.05374 21.3479 4.00016 24.0001 4.00016C26.6523 4.00016 29.1958 5.05374 31.0712 6.92911C32.9466 8.80448 34.0002 11.348 34.0002 14.0002V22.0002" stroke="#008000" stroke-width="4" stroke-linecap="round" stroke-linejoin="round"/>
</svg>