<svg width="79" height="79" viewBox="0 0 79 79" fill="none"
    xmlns="http://www.w3.org/2000/svg">
    <circle cx="39.5" cy="39.5" r="39.5" fill="#007C16"/>
    <path d="M58.8607 40.6404L28.5255 58.6723C28.1714 58.8827 27.7678 58.9958 27.3558 58.9999C26.9437 59.004 26.538 58.899 26.1797 58.6956C25.8215 58.4922 25.5236 58.1977 25.3164 57.842C25.1092 57.4863 25 57.0822 25 56.6707V21.3283C25.0005 20.9204 25.1081 20.5199 25.3121 20.1666C25.5161 19.8133 25.8093 19.5196 26.1625 19.3149C26.5157 19.1102 26.9165 19.0016 27.3249 19C27.7333 18.9984 28.135 19.1038 28.4898 19.3057L58.8248 36.616C59.1787 36.8181 59.4735 37.1092 59.6797 37.4604C59.8859 37.8117 59.9963 38.2107 59.9999 38.6179C60.0035 39.025 59.9002 39.4259 59.7003 39.7808C59.5003 40.1356 59.2108 40.4319 58.8604 40.6401L58.8607 40.6404ZM28.1101 22.6662V55.3049L56.1243 38.6525L28.1101 22.6662Z" fill="white"/>
</svg>
