<svg width="84" height="84" viewBox="0 0 84 84" fill="none"
    xmlns="http://www.w3.org/2000/svg">
    <path d="M63 60.375H66.9375C68.6764 60.3698 70.3426 59.6767 71.5722 58.4472C72.8017 57.2176 73.4948 55.5514 73.5 53.8125V27.5625C73.4948 25.8236 72.8017 24.1574 71.5722 22.9278C70.3426 21.6983 68.6764 21.0052 66.9375 21H17.0625C15.3236 21.0052 13.6574 21.6983 12.4278 22.9278C11.1983 24.1574 10.5052 25.8236 10.5 27.5625V53.8125C10.5052 55.5514 11.1983 57.2176 12.4278 58.4472C13.6574 59.6767 15.3236 60.3698 17.0625 60.375H21" stroke="#007C16" stroke-width="4" stroke-linejoin="round"/>
    <path d="M59.01 39.375H24.99C22.7864 39.375 21 41.1614 21 43.365V69.51C21 71.7136 22.7864 73.5 24.99 73.5H59.01C61.2136 73.5 63 71.7136 63 69.51V43.365C63 41.1614 61.2136 39.375 59.01 39.375Z" stroke="#007C16" stroke-width="4" stroke-linejoin="round"/>
    <path d="M63 21V17.0625C62.9948 15.3236 62.3017 13.6574 61.0722 12.4278C59.8426 11.1983 58.1764 10.5052 56.4375 10.5H27.5625C25.8236 10.5052 24.1574 11.1983 22.9278 12.4278C21.6983 13.6574 21.0052 15.3236 21 17.0625V21" stroke="#007C16" stroke-width="4" stroke-linejoin="round"/>
    <path d="M66.75 30.1875C66.75 31.5337 65.6587 32.625 64.3125 32.625C62.9663 32.625 61.875 31.5337 61.875 30.1875C61.875 28.8413 62.9663 27.75 64.3125 27.75C65.6587 27.75 66.75 28.8413 66.75 30.1875Z" stroke="#007C16" stroke-width="3"/>
</svg>
