<svg width="68" height="54" viewBox="0 0 68 54" fill="none"
    xmlns="http://www.w3.org/2000/svg">
    <path d="M54 18H62C63.0609 18 64.0783 17.5786 64.8284 16.8284C65.5786 16.0783 66 15.0609 66 14V6C66 4.93913 65.5786 3.92172 64.8284 3.17157C64.0783 2.42143 63.0609 2 62 2H6C4.93913 2 3.92172 2.42143 3.17157 3.17157C2.42143 3.92172 2 4.93913 2 6V14C2 15.0609 2.42143 16.0783 3.17157 16.8284C3.92172 17.5786 4.93913 18 6 18H14" stroke="#007C16" stroke-width="4" stroke-linecap="round" stroke-linejoin="round"/>
    <path fill-rule="evenodd" clip-rule="evenodd" d="M14 2H54V48C54 49.0609 53.5786 50.0783 52.8284 50.8284C52.0783 51.5786 51.0609 52 50 52H18C16.9391 52 15.9217 51.5786 15.1716 50.8284C14.4214 50.0783 14 49.0609 14 48V2Z" stroke="#007C16" stroke-width="4" stroke-linecap="round" stroke-linejoin="round"/>
    <path d="M26 30L34 38M34 38L42 30M34 38V14" stroke="#007C16" stroke-width="4" stroke-linecap="round" stroke-linejoin="round"/>
</svg>
