<svg width="17" height="17" viewBox="0 0 17 17" fill="none"
    xmlns="http://www.w3.org/2000/svg">
    <path d="M6.86081 12.7294H1.68021V11.1353H6.86081C7.3699 11.1355 7.86924 11.275 8.30471 11.5387C8.74019 11.8024 9.0952 12.1802 9.33128 12.6313C9.56737 13.0823 9.67552 13.5894 9.64402 14.0975C9.61252 14.6056 9.44258 15.0954 9.15259 15.5138C8.86261 15.9323 8.46365 16.2634 7.99894 16.4713C7.53423 16.6792 7.02149 16.7559 6.51627 16.6932C6.01106 16.6305 5.53263 16.4308 5.13283 16.1156C4.73303 15.8004 4.4271 15.3818 4.24819 14.9052L5.741 14.3449C5.81766 14.5492 5.94875 14.7286 6.12009 14.8637C6.29142 14.9988 6.49645 15.0844 6.71297 15.1113C6.92949 15.1382 7.14924 15.1053 7.34841 15.0162C7.54759 14.9272 7.71858 14.7853 7.84288 14.606C7.96717 14.4266 8.04002 14.2167 8.05354 13.999C8.06705 13.7812 8.02072 13.5639 7.91955 13.3706C7.81839 13.1772 7.66625 13.0153 7.47962 12.9023C7.29299 12.7893 7.07899 12.7295 6.86081 12.7294ZM2.47723 7.94728H13.2369C13.746 7.94746 14.2454 8.08696 14.6808 8.35065C15.1163 8.61434 15.4713 8.99218 15.7074 9.44322C15.9435 9.89427 16.0516 10.4013 16.0201 10.9094C15.9886 11.4175 15.8187 11.9074 15.5287 12.3258C15.2387 12.7442 14.8398 13.0753 14.3751 13.2832C13.9103 13.4911 13.3976 13.5678 12.8924 13.5052C12.3872 13.4425 11.9088 13.2427 11.509 12.9275C11.1091 12.6124 10.8032 12.1938 10.6243 11.7172L12.1171 11.1569C12.1938 11.3611 12.3249 11.5405 12.4962 11.6756C12.6675 11.8107 12.8726 11.8964 13.0891 11.9232C13.3056 11.9501 13.5254 11.9173 13.7245 11.8282C13.9237 11.7391 14.0947 11.5972 14.219 11.4179C14.3433 11.2386 14.4161 11.0287 14.4297 10.8109C14.4432 10.5931 14.3968 10.3758 14.2957 10.1825C14.1945 9.98919 14.0424 9.82725 13.8557 9.71422C13.6691 9.6012 13.4551 9.5414 13.2369 9.54131H2.47723C1.84308 9.54131 1.23491 9.2894 0.786503 8.84099C0.338095 8.39258 0.0861816 7.78441 0.0861816 7.15027C0.0861816 6.51612 0.338095 5.90795 0.786503 5.45954C1.23491 5.01114 1.84308 4.75922 2.47723 4.75922H9.25185C9.47004 4.75913 9.68404 4.69933 9.87066 4.58631C10.0573 4.47329 10.2094 4.31134 10.3106 4.11803C10.4118 3.92472 10.4581 3.70741 10.4446 3.48964C10.4311 3.27188 10.3582 3.06196 10.2339 2.88264C10.1096 2.70332 9.93863 2.56144 9.73946 2.47236C9.54029 2.38328 9.32054 2.3504 9.10402 2.37729C8.8875 2.40418 8.68246 2.48981 8.51113 2.6249C8.3398 2.76 8.2087 2.9394 8.13205 3.14367L6.63924 2.58417C6.86915 1.9727 7.30632 1.46129 7.87457 1.13903C8.44281 0.816772 9.10611 0.704103 9.74889 0.820653C10.3917 0.937204 10.9732 1.27559 11.3921 1.77684C11.811 2.27809 12.0408 2.91044 12.0414 3.5637C12.0414 4.30354 11.7475 5.01307 11.2244 5.53621C10.7012 6.05935 9.99169 6.35325 9.25185 6.35325H2.47723C2.26585 6.35325 2.06312 6.43722 1.91365 6.58669C1.76418 6.73616 1.68021 6.93889 1.68021 7.15027C1.68021 7.36165 1.76418 7.56437 1.91365 7.71384C2.06312 7.86331 2.26585 7.94728 2.47723 7.94728Z" fill="white"/>
</svg>
